<mxfile host="app.diagrams.net" agent="Mozilla/5.0 (Macintosh; Intel Mac OS X 10_15_7) AppleWebKit/537.36 (KHTML, like Gecko) Chrome/136.0.0.0 Safari/537.36" version="27.0.6">
  <diagram id="C5RBs43oDa-KdzZeNtuy" name="Page-1">
    <mxGraphModel dx="983" dy="573" grid="1" gridSize="10" guides="1" tooltips="1" connect="1" arrows="1" fold="1" page="1" pageScale="1" pageWidth="827" pageHeight="1169" math="0" shadow="0">
      <root>
        <mxCell id="WIyWlLk6GJQsqaUBKTNV-0" />
        <mxCell id="WIyWlLk6GJQsqaUBKTNV-1" parent="WIyWlLk6GJQsqaUBKTNV-0" />
        <mxCell id="ONKL0TjyHV9MBXLEH0Kv-9" style="edgeStyle=orthogonalEdgeStyle;rounded=0;orthogonalLoop=1;jettySize=auto;html=1;" edge="1" parent="WIyWlLk6GJQsqaUBKTNV-1" source="ONKL0TjyHV9MBXLEH0Kv-0" target="ONKL0TjyHV9MBXLEH0Kv-1">
          <mxGeometry relative="1" as="geometry" />
        </mxCell>
        <mxCell id="ONKL0TjyHV9MBXLEH0Kv-0" value="Usuario" style="rounded=1;whiteSpace=wrap;html=1;" vertex="1" parent="WIyWlLk6GJQsqaUBKTNV-1">
          <mxGeometry x="320" y="40" width="80" height="40" as="geometry" />
        </mxCell>
        <mxCell id="ONKL0TjyHV9MBXLEH0Kv-10" style="edgeStyle=orthogonalEdgeStyle;rounded=0;orthogonalLoop=1;jettySize=auto;html=1;" edge="1" parent="WIyWlLk6GJQsqaUBKTNV-1" source="ONKL0TjyHV9MBXLEH0Kv-1" target="ONKL0TjyHV9MBXLEH0Kv-2">
          <mxGeometry relative="1" as="geometry" />
        </mxCell>
        <mxCell id="ONKL0TjyHV9MBXLEH0Kv-1" value="Interfaz Web" style="rounded=0;whiteSpace=wrap;html=1;" vertex="1" parent="WIyWlLk6GJQsqaUBKTNV-1">
          <mxGeometry x="320" y="110" width="80" height="40" as="geometry" />
        </mxCell>
        <mxCell id="ONKL0TjyHV9MBXLEH0Kv-12" style="edgeStyle=orthogonalEdgeStyle;rounded=0;orthogonalLoop=1;jettySize=auto;html=1;" edge="1" parent="WIyWlLk6GJQsqaUBKTNV-1" source="ONKL0TjyHV9MBXLEH0Kv-2" target="ONKL0TjyHV9MBXLEH0Kv-4">
          <mxGeometry relative="1" as="geometry" />
        </mxCell>
        <mxCell id="ONKL0TjyHV9MBXLEH0Kv-14" style="edgeStyle=orthogonalEdgeStyle;rounded=0;orthogonalLoop=1;jettySize=auto;html=1;entryX=0;entryY=0.5;entryDx=0;entryDy=0;" edge="1" parent="WIyWlLk6GJQsqaUBKTNV-1" source="ONKL0TjyHV9MBXLEH0Kv-2" target="ONKL0TjyHV9MBXLEH0Kv-3">
          <mxGeometry relative="1" as="geometry" />
        </mxCell>
        <mxCell id="ONKL0TjyHV9MBXLEH0Kv-2" value="Backend Python" style="rounded=0;whiteSpace=wrap;html=1;" vertex="1" parent="WIyWlLk6GJQsqaUBKTNV-1">
          <mxGeometry x="310" y="180" width="100" height="40" as="geometry" />
        </mxCell>
        <mxCell id="ONKL0TjyHV9MBXLEH0Kv-3" value="API de TMDB" style="rounded=0;whiteSpace=wrap;html=1;" vertex="1" parent="WIyWlLk6GJQsqaUBKTNV-1">
          <mxGeometry x="440" y="180" width="90" height="40" as="geometry" />
        </mxCell>
        <mxCell id="ONKL0TjyHV9MBXLEH0Kv-15" style="edgeStyle=orthogonalEdgeStyle;rounded=0;orthogonalLoop=1;jettySize=auto;html=1;" edge="1" parent="WIyWlLk6GJQsqaUBKTNV-1" source="ONKL0TjyHV9MBXLEH0Kv-4" target="ONKL0TjyHV9MBXLEH0Kv-5">
          <mxGeometry relative="1" as="geometry" />
        </mxCell>
        <mxCell id="ONKL0TjyHV9MBXLEH0Kv-4" value="Traductor Helsinki-NLP" style="rounded=0;whiteSpace=wrap;html=1;" vertex="1" parent="WIyWlLk6GJQsqaUBKTNV-1">
          <mxGeometry x="300" y="250" width="120" height="40" as="geometry" />
        </mxCell>
        <mxCell id="ONKL0TjyHV9MBXLEH0Kv-16" style="edgeStyle=orthogonalEdgeStyle;rounded=0;orthogonalLoop=1;jettySize=auto;html=1;entryX=0.5;entryY=0;entryDx=0;entryDy=0;" edge="1" parent="WIyWlLk6GJQsqaUBKTNV-1" source="ONKL0TjyHV9MBXLEH0Kv-5" target="ONKL0TjyHV9MBXLEH0Kv-7">
          <mxGeometry relative="1" as="geometry" />
        </mxCell>
        <mxCell id="ONKL0TjyHV9MBXLEH0Kv-5" value="Modelo de recomendaciÃ³n" style="rounded=0;whiteSpace=wrap;html=1;" vertex="1" parent="WIyWlLk6GJQsqaUBKTNV-1">
          <mxGeometry x="305" y="320" width="110" height="50" as="geometry" />
        </mxCell>
        <mxCell id="ONKL0TjyHV9MBXLEH0Kv-7" value="Resultados en la interfaz" style="rounded=1;whiteSpace=wrap;html=1;" vertex="1" parent="WIyWlLk6GJQsqaUBKTNV-1">
          <mxGeometry x="305" y="400" width="110" height="50" as="geometry" />
        </mxCell>
      </root>
    </mxGraphModel>
  </diagram>
</mxfile>
